<?xml version="1.0" encoding="UTF-8" standalone="no"?>
<!-- Created with Inkscape (http://www.inkscape.org/) -->

<svg
   xmlns:dc="http://purl.org/dc/elements/1.1/"
   xmlns:cc="http://creativecommons.org/ns#"
   xmlns:rdf="http://www.w3.org/1999/02/22-rdf-syntax-ns#"
   xmlns:svg="http://www.w3.org/2000/svg"
   xmlns="http://www.w3.org/2000/svg"
   xmlns:sodipodi="http://sodipodi.sourceforge.net/DTD/sodipodi-0.dtd"
   xmlns:inkscape="http://www.inkscape.org/namespaces/inkscape"
   width="97.44384mm"
   height="7.6784286mm"
   viewBox="0 0 345.27345 27.207031"
   id="svg3439"
   version="1.1"
   inkscape:version="0.91 r13725"
   sodipodi:docname="asset_sr_name.svg">
  <defs
     id="defs3441" />
  <sodipodi:namedview
     id="base"
     pagecolor="#ffffff"
     bordercolor="#666666"
     borderopacity="1.0"
     inkscape:pageopacity="0.0"
     inkscape:pageshadow="2"
     inkscape:zoom="1.4"
     inkscape:cx="117.25519"
     inkscape:cy="-12.990747"
     inkscape:document-units="px"
     inkscape:current-layer="layer1"
     showgrid="false"
     fit-margin-top="0"
     fit-margin-left="0"
     fit-margin-right="0"
     fit-margin-bottom="0"
     inkscape:window-width="1600"
     inkscape:window-height="836"
     inkscape:window-x="0"
     inkscape:window-y="27"
     inkscape:window-maximized="1" />
  <metadata
     id="metadata3444">
    <rdf:RDF>
      <cc:Work
         rdf:about="">
        <dc:format>image/svg+xml</dc:format>
        <dc:type
           rdf:resource="http://purl.org/dc/dcmitype/StillImage" />
        <dc:title></dc:title>
      </cc:Work>
    </rdf:RDF>
  </metadata>
  <g
     inkscape:label="Layer 1"
     inkscape:groupmode="layer"
     id="layer1"
     transform="translate(281.20816,-598.75867)">
    <g
       style="font-style:normal;font-weight:normal;font-size:12.5px;line-height:120.00000477%;font-family:Sans;letter-spacing:0px;word-spacing:0px;fill:#000000;fill-opacity:1;stroke:none;stroke-width:1px;stroke-linecap:butt;stroke-linejoin:miter;stroke-opacity:1"
       id="text3446">
      <path
         d="m -261.57925,606.25867 -2.98829,0 q 0,-3.22266 -1.07421,-4.08203 -1.07422,-0.87891 -5.0586,-0.87891 -4.72656,0 -6.09375,0.83984 -1.36719,0.82032 -1.36719,3.69141 0,3.22266 1.07422,3.92578 1.07422,0.70313 6.38672,0.95703 6.23047,0.27344 7.91016,1.58203 1.69922,1.3086 1.69922,5.85938 0,4.92187 -1.95313,6.36719 -1.93359,1.44531 -8.57422,1.44531 -5.76172,0 -7.67578,-1.44531 -1.89453,-1.46485 -1.89453,-5.87891 l -0.0195,-1.19141 2.98828,0 0,0.66407 q 0,3.57421 1.09375,4.45312 1.09375,0.85938 5.60547,0.85938 5.17578,0 6.36719,-0.85938 1.1914,-0.87891 1.1914,-4.64844 0,-2.4414 -0.82031,-3.24218 -0.80078,-0.82032 -3.37891,-0.97657 l -3.125,-0.15625 -2.96875,-0.15625 q -6.77734,-0.46875 -6.77734,-7.03125 0,-4.55078 1.97266,-6.07422 1.97265,-1.52343 7.87109,-1.52343 5.97656,0 7.79297,1.42578 1.81641,1.40625 1.81641,6.07422 z"
         style="font-style:normal;font-variant:normal;font-weight:normal;font-stretch:normal;font-size:40px;font-family:Eurostile;-inkscape-font-specification:Eurostile;fill:#000000"
         id="path3456" />
      <path
         d="m -248.14175,601.82507 0,23.86719 -3.00782,0 0,-23.86719 -8.6914,0 0,-2.79297 20.3125,0 0,2.79297 -8.61328,0 z"
         style="font-style:normal;font-variant:normal;font-weight:normal;font-stretch:normal;font-size:40px;font-family:Eurostile;-inkscape-font-specification:Eurostile;fill:#000000"
         id="path3458" />
      <path
         d="m -218.68863,599.0321 3.00781,0 0,18.67188 q 0,5.07812 -2.05078,6.67969 -2.03125,1.58203 -8.55469,1.58203 -6.11328,0 -8.32031,-1.52344 -2.1875,-1.54297 -2.1875,-5.83984 l 0,-0.89844 0,-18.67188 3.00781,0 0,18.67188 q 0,3.78906 1.23047,4.76562 1.23047,0.95704 6.05469,0.95704 5.23438,0 6.52344,-0.9375 1.28906,-0.95704 1.28906,-4.78516 l 0,-18.67188 z"
         style="font-style:normal;font-variant:normal;font-weight:normal;font-stretch:normal;font-size:40px;font-family:Eurostile;-inkscape-font-specification:Eurostile;fill:#000000"
         id="path3460" />
      <path
         d="m -210.64175,625.69226 0,-26.66016 12.34375,0 q 5.72265,0 7.7539,2.51954 2.03125,2.51953 2.03125,9.64843 0,8.67188 -1.8164,11.58203 -1.79688,2.91016 -7.20704,2.91016 l -13.10546,0 z m 3.00781,-2.53906 8.6914,0 q 4.78516,0 6.17188,-1.91406 1.38672,-1.91407 1.38672,-8.53516 0,-7.26563 -1.21094,-9.19922 -1.19141,-1.93359 -5.74219,-1.93359 l -9.29687,0 0,21.58203 z"
         style="font-style:normal;font-variant:normal;font-weight:normal;font-stretch:normal;font-size:40px;font-family:Eurostile;-inkscape-font-specification:Eurostile;fill:#000000"
         id="path3462" />
      <path
         d="m -182.53629,601.57117 0,9.08203 13.53516,0 0,2.53906 -13.53516,0 0,9.96094 14.1211,0 0,2.53906 -17.12891,0 0,-26.66016 17.12891,0 0,2.53907 -14.1211,0 z"
         style="font-style:normal;font-variant:normal;font-weight:normal;font-stretch:normal;font-size:40px;font-family:Eurostile;-inkscape-font-specification:Eurostile;fill:#000000"
         id="path3464" />
      <path
         d="m -141.77457,599.0321 0,26.66016 -4.9414,0 -11.17188,-18.14453 -1.8164,-2.98828 -0.89844,-1.48438 -0.89844,-1.48437 -0.0781,0 0.0195,0.99609 0.0195,1.01563 0,1.99218 0,20.09766 -3.00781,0 0,-26.66016 4.92187,0 9.74609,15.89844 2.53907,4.17969 1.26953,2.07031 1.25,2.08985 0.0781,0 -0.0195,-0.9961 -0.0195,-1.01562 0,-1.99219 0,-20.23438 3.00781,0 z"
         style="font-style:normal;font-variant:normal;font-weight:normal;font-stretch:normal;font-size:40px;font-family:Eurostile;-inkscape-font-specification:Eurostile;fill:#000000"
         id="path3466" />
      <path
         d="m -127.3605,601.82507 0,23.86719 -3.00782,0 0,-23.86719 -8.6914,0 0,-2.79297 20.3125,0 0,2.79297 -8.61328,0 z"
         style="font-style:normal;font-variant:normal;font-weight:normal;font-stretch:normal;font-size:40px;font-family:Eurostile;-inkscape-font-specification:Eurostile;fill:#000000"
         id="path3468" />
      <path
         d="m -106.03238,625.69226 0,-26.66016 12.695313,0 q 4.296875,0 6.054688,1.69922 1.757812,1.69922 1.757812,5.89844 0,3.69141 -0.957031,5.15625 -0.957031,1.44531 -3.652344,1.875 l 0,0.0586 q 4.238282,0.3125 4.238282,5.15625 l 0,6.81641 -3.007813,0 0,-6.13281 q 0,-4.66797 -4.042969,-4.66797 l -0.996093,0 -9.082035,0 0,10.80078 -3.00781,0 z m 3.00781,-13.33984 8.69141,0 q 3.4375,0 4.6875,-1.03516 1.25,-1.05469 1.25,-3.94531 0,-3.61328 -0.9375,-4.70703 -0.917969,-1.09375 -3.964844,-1.09375 l -9.726566,0 0,10.78125 z"
         style="font-style:normal;font-variant:normal;font-weight:normal;font-stretch:normal;font-size:40px;font-family:Eurostile;-inkscape-font-specification:Eurostile;fill:#000000"
         id="path3470" />
      <path
         d="m -71.36441,598.75867 q 7.558593,0 9.453125,2.20703 1.894531,2.20703 1.894531,11.03515 0,9.51172 -1.816406,11.73829 -1.816407,2.22656 -9.53125,2.22656 -7.675782,0 -9.53125,-2.20703 -1.835938,-2.20703 -1.835938,-11.40625 l 0,-1.875 0.03906,-2.51953 q 0,-5.3125 2.382812,-7.2461 2.402344,-1.95312 8.945313,-1.95312 z m -0.01953,2.53906 q -6.328125,0 -7.402343,1.40625 -1.074219,1.40625 -1.074219,9.64844 0,8.26172 1.074219,9.66797 1.074218,1.40625 7.402343,1.40625 6.347657,0 7.421875,-1.40625 1.074219,-1.40625 1.074219,-9.66797 l 0,-1.73828 -0.01953,-2.51954 q 0,-4.41406 -1.484375,-5.60546 -1.484375,-1.19141 -6.992188,-1.19141 z"
         style="font-style:normal;font-variant:normal;font-weight:normal;font-stretch:normal;font-size:40px;font-family:Eurostile;-inkscape-font-specification:Eurostile;fill:#000000"
         id="path3472" />
      <path
         d="m -56.579254,625.69226 0,-26.66016 11.796875,0 q 4.902344,0 6.40625,1.34766 1.523437,1.34766 1.523437,5.70313 0,4.43359 -3.417968,5.60546 l 0,0.0586 q 4.238281,1.01562 4.238281,6.26953 0,4.23828 -1.679688,5.95703 -1.660156,1.71875 -5.800781,1.71875 l -13.066406,0 z m 3.007812,-14.94141 7.910157,0 q 3.769531,0 4.84375,-0.89843 1.09375,-0.89844 1.09375,-4.00391 0,-2.69531 -0.957032,-3.47656 -0.9375,-0.80078 -4.160156,-0.80078 l -8.730469,0 0,9.17968 z m 0,12.40235 6.386719,0 2.714844,-0.0195 q 3.4375,0 4.492187,-0.87891 1.074219,-0.89844 1.074219,-3.76953 0,-3.57422 -1.074219,-4.375 -1.074218,-0.82031 -5.839843,-0.82031 l -7.753907,0 0,9.86328 z"
         style="font-style:normal;font-variant:normal;font-weight:normal;font-stretch:normal;font-size:40px;font-family:Eurostile;-inkscape-font-specification:Eurostile;fill:#000000"
         id="path3474" />
      <path
         d="m -22.14566,598.75867 q 7.558593,0 9.453125,2.20703 1.894531,2.20703 1.894531,11.03515 0,9.51172 -1.816406,11.73829 -1.816407,2.22656 -9.53125,2.22656 -7.675782,0 -9.53125,-2.20703 -1.835938,-2.20703 -1.835938,-11.40625 l 0,-1.875 0.03906,-2.51953 q 0,-5.3125 2.382812,-7.2461 2.402344,-1.95312 8.945313,-1.95312 z m -0.01953,2.53906 q -6.328125,0 -7.402343,1.40625 -1.074219,1.40625 -1.074219,9.64844 0,8.26172 1.074219,9.66797 1.074218,1.40625 7.402343,1.40625 6.347657,0 7.421875,-1.40625 1.074219,-1.40625 1.074219,-9.66797 l 0,-1.73828 -0.01953,-2.51954 q 0,-4.41406 -1.484375,-5.60546 -1.484375,-1.19141 -6.992188,-1.19141 z"
         style="font-style:normal;font-variant:normal;font-weight:normal;font-stretch:normal;font-size:40px;font-family:Eurostile;-inkscape-font-specification:Eurostile;fill:#000000"
         id="path3476" />
      <path
         d="m 1.9363708,601.82507 0,23.86719 -3.0078125,0 0,-23.86719 -8.6914062,0 0,-2.79297 20.3124999,0 0,2.79297 -8.6132812,0 z"
         style="font-style:normal;font-variant:normal;font-weight:normal;font-stretch:normal;font-size:40px;font-family:Eurostile;-inkscape-font-specification:Eurostile;fill:#000000"
         id="path3478" />
      <path
         d="m 16.272308,599.0321 0,26.66016 -3.007812,0 0,-26.66016 3.007812,0 z"
         style="font-style:normal;font-variant:normal;font-weight:normal;font-stretch:normal;font-size:40px;font-family:Eurostile;-inkscape-font-specification:Eurostile;fill:#000000"
         id="path3480" />
      <path
         d="m 38.869965,616.78601 2.988281,0 0,1.01563 q 0,5.44921 -1.855469,6.8164 -1.855469,1.34766 -9.335937,1.34766 -6.699219,0 -8.515625,-2.38281 -1.816407,-2.40235 -1.816407,-11.26954 0,-6.93359 0.410157,-8.71093 0.410156,-1.79688 2.34375,-3.20313 2.265625,-1.64062 9.785156,-1.64062 5.097656,0 6.855469,1.58203 1.777343,1.58203 1.777343,6.11328 l 0.01953,0.72266 -2.988282,0 -0.01953,-0.82032 q 0,-3.22265 -1.054687,-4.14062 -1.035157,-0.91797 -4.707032,-0.91797 -6.445312,0 -7.871093,1.07422 -1.425782,1.07422 -1.425782,5.95703 0,11.23047 0.957032,13.16406 0.957031,1.9336 6.542968,1.9336 5.3125,0 6.621094,-0.83985 1.328125,-0.83984 1.328125,-4.21875 l -0.03906,-1.58203 z"
         style="font-style:normal;font-variant:normal;font-weight:normal;font-stretch:normal;font-size:40px;font-family:Eurostile;-inkscape-font-specification:Eurostile;fill:#000000"
         id="path3482" />
      <path
         d="m 63.576996,606.25867 -2.988281,0 q 0,-3.22266 -1.074219,-4.08203 -1.074219,-0.87891 -5.058594,-0.87891 -4.726562,0 -6.09375,0.83984 -1.367187,0.82032 -1.367187,3.69141 0,3.22266 1.074218,3.92578 1.074219,0.70313 6.386719,0.95703 6.230469,0.27344 7.910156,1.58203 1.699219,1.3086 1.699219,5.85938 0,4.92187 -1.953125,6.36719 -1.933594,1.44531 -8.574219,1.44531 -5.761718,0 -7.675781,-1.44531 -1.894531,-1.46485 -1.894531,-5.87891 l -0.01953,-1.19141 2.988281,0 0,0.66407 q 0,3.57421 1.09375,4.45312 1.09375,0.85938 5.605469,0.85938 5.175781,0 6.367187,-0.85938 1.191406,-0.87891 1.191406,-4.64844 0,-2.4414 -0.820312,-3.24218 -0.800781,-0.82032 -3.378906,-0.97657 l -3.125,-0.15625 -2.96875,-0.15625 q -6.777344,-0.46875 -6.777344,-7.03125 0,-4.55078 1.972656,-6.07422 1.972656,-1.52343 7.871094,-1.52343 5.976562,0 7.792969,1.42578 1.816406,1.40625 1.816406,6.07422 z"
         style="font-style:normal;font-variant:normal;font-weight:normal;font-stretch:normal;font-size:40px;font-family:Eurostile;-inkscape-font-specification:Eurostile;fill:#000000"
         id="path3484" />
    </g>
  </g>
</svg>
