<?xml version="1.0" encoding="UTF-8" standalone="no"?>
<!-- Created with Inkscape (http://www.inkscape.org/) -->

<svg
   xmlns:dc="http://purl.org/dc/elements/1.1/"
   xmlns:cc="http://creativecommons.org/ns#"
   xmlns:rdf="http://www.w3.org/1999/02/22-rdf-syntax-ns#"
   xmlns:svg="http://www.w3.org/2000/svg"
   xmlns="http://www.w3.org/2000/svg"
   xmlns:sodipodi="http://sodipodi.sourceforge.net/DTD/sodipodi-0.dtd"
   xmlns:inkscape="http://www.inkscape.org/namespaces/inkscape"
   width="37.809921mm"
   height="6.1805015mm"
   viewBox="0 0 133.97216 21.899415"
   id="svg3559"
   version="1.1"
   inkscape:version="0.91 r13725"
   sodipodi:docname="asset_supported_by.svg">
  <defs
     id="defs3561" />
  <sodipodi:namedview
     id="base"
     pagecolor="#ffffff"
     bordercolor="#666666"
     borderopacity="1.0"
     inkscape:pageopacity="0.0"
     inkscape:pageshadow="2"
     inkscape:zoom="1.979899"
     inkscape:cx="39.624053"
     inkscape:cy="29.183647"
     inkscape:document-units="px"
     inkscape:current-layer="layer1"
     showgrid="false"
     fit-margin-top="0"
     fit-margin-left="0"
     fit-margin-right="0"
     fit-margin-bottom="0"
     inkscape:window-width="1600"
     inkscape:window-height="836"
     inkscape:window-x="0"
     inkscape:window-y="27"
     inkscape:window-maximized="1" />
  <metadata
     id="metadata3564">
    <rdf:RDF>
      <cc:Work
         rdf:about="">
        <dc:format>image/svg+xml</dc:format>
        <dc:type
           rdf:resource="http://purl.org/dc/dcmitype/StillImage" />
        <dc:title></dc:title>
      </cc:Work>
    </rdf:RDF>
  </metadata>
  <g
     inkscape:label="Layer 1"
     inkscape:groupmode="layer"
     id="layer1"
     transform="translate(46.986084,-529.98395)">
    <g
       style="font-style:normal;font-weight:normal;font-size:12.5px;line-height:120.00000477%;font-family:Sans;letter-spacing:0px;word-spacing:0px;fill:#000000;fill-opacity:1;stroke:none;stroke-width:1px;stroke-linecap:butt;stroke-linejoin:miter;stroke-opacity:1"
       id="text3450">
      <path
         d="m -37.403564,538.02838 -1.708985,0 q 0,-1.2207 -0.500488,-1.51367 -0.488281,-0.29297 -2.539063,-0.29297 -1.904296,0 -2.416992,0.31738 -0.512695,0.30518 -0.512695,1.48926 0,1.79443 1.721191,1.87988 l 1.379395,0.0732 1.745605,0.0855 q 3.173828,0.15869 3.173828,3.32031 0,1.96533 -1.049804,2.69775 -1.049805,0.73242 -3.845215,0.73242 -2.868652,0 -3.955078,-0.6958 -1.074219,-0.6958 -1.074219,-2.55127 l 0.01221,-0.63476 1.77002,0 0.01221,0.54931 q 0,1.14747 0.585937,1.53809 0.585938,0.37842 2.307129,0.37842 2.111816,0 2.770996,-0.40283 0.671387,-0.40284 0.671387,-1.68457 0,-1.84327 -1.672363,-1.84327 -3.894043,0 -5.126954,-0.65918 -1.220703,-0.65918 -1.220703,-2.73437 0,-1.96533 0.964356,-2.61231 0.976562,-0.65917 3.869629,-0.65917 4.638672,0 4.638672,2.79541 l 0,0.42724 z"
         style="font-style:normal;font-variant:normal;font-weight:normal;font-stretch:normal;font-size:25px;font-family:Eurostile;-inkscape-font-specification:Eurostile;fill:#000000"
         id="path3576" />
      <path
         d="m -25.062256,534.97662 0,11.66993 -1.708984,0 0.12207,-1.52588 -0.03662,-0.0366 q -0.891113,1.73339 -3.808594,1.73339 -4.089355,0 -4.089355,-4.07714 l 0,-7.76368 1.708984,0 0,7.76368 q 0,1.58691 0.524902,2.12402 0.524903,0.53711 2.062989,0.53711 2.01416,0 2.758789,-0.79346 0.756836,-0.80566 0.756836,-2.94189 l 0,-6.68946 1.708984,0 z"
         style="font-style:normal;font-variant:normal;font-weight:normal;font-stretch:normal;font-size:25px;font-family:Eurostile;-inkscape-font-specification:Eurostile;fill:#000000"
         id="path3578" />
      <path
         d="m -21.888428,534.97662 1.708985,0 -0.08545,1.47705 0.04883,0.0366 q 0.891113,-1.68457 3.833007,-1.68457 2.600098,0 3.576661,1.31835 0.976562,1.31836 0.976562,4.8584 0,3.28369 -0.98877,4.56543 -0.988769,1.26953 -3.515625,1.26953 -2.880859,0 -3.808593,-1.55029 l -0.03662,0 0,6.38428 -1.708985,0 0,-16.67481 z m 5.029297,1.24512 q -2.050781,0 -2.67334,0.89111 -0.622558,0.87891 -0.622558,3.79639 0,2.69775 0.671386,3.60107 0.671387,0.89112 2.697754,0.89112 1.928711,0 2.539063,-0.8667 0.622558,-0.8667 0.622558,-3.57666 0,-2.97852 -0.598144,-3.85742 -0.598145,-0.87891 -2.636719,-0.87891 z"
         style="font-style:normal;font-variant:normal;font-weight:normal;font-stretch:normal;font-size:25px;font-family:Eurostile;-inkscape-font-specification:Eurostile;fill:#000000"
         id="path3580" />
      <path
         d="m -9.1442871,534.97662 1.7089844,0 -0.085449,1.47705 0.048828,0.0366 q 0.8911133,-1.68457 3.8330078,-1.68457 2.6000976,0 3.57666014,1.31835 0.9765625,1.31836 0.9765625,4.8584 0,3.28369 -0.98876953,4.56543 -0.98876951,1.26953 -3.51562501,1.26953 -2.8808594,0 -3.8085937,-1.55029 l -0.036621,0 0,6.38428 -1.7089844,0 0,-16.67481 z m 5.0292969,1.24512 q -2.0507813,0 -2.6733399,0.89111 -0.6225586,0.87891 -0.6225586,3.79639 0,2.69775 0.6713867,3.60107 0.6713868,0.89112 2.697754,0.89112 1.9287109,0 2.5390625,-0.8667 0.62255855,-0.8667 0.62255855,-3.57666 0,-2.97852 -0.59814455,-3.85742 -0.5981445,-0.87891 -2.6367187,-0.87891 z"
         style="font-style:normal;font-variant:normal;font-weight:normal;font-stretch:normal;font-size:25px;font-family:Eurostile;-inkscape-font-specification:Eurostile;fill:#000000"
         id="path3582" />
      <path
         d="m 8.4216309,534.80573 q 3.2348631,0 4.1992191,1.12304 0.964355,1.12305 0.964355,4.88281 0,3.75977 -0.964355,4.88282 -0.964356,1.12304 -4.1992191,1.12304 -3.2226563,0 -4.1870118,-1.12304 -0.9643554,-1.12305 -0.9643554,-4.88282 0,-3.75976 0.9643554,-4.88281 0.9643555,-1.12304 4.1870118,-1.12304 z m 0,1.41601 q -2.2705079,0 -2.8198243,0.74463 -0.5371093,0.73242 -0.5371093,3.84521 0,3.1128 0.5371093,3.85743 0.5493164,0.73242 2.8198243,0.73242 2.2827151,0 2.8198241,-0.73242 0.549316,-0.74463 0.549316,-3.85743 0,-3.11279 -0.549316,-3.84521 -0.537109,-0.74463 -2.8198241,-0.74463 z"
         style="font-style:normal;font-variant:normal;font-weight:normal;font-stretch:normal;font-size:25px;font-family:Eurostile;-inkscape-font-specification:Eurostile;fill:#000000"
         id="path3584" />
      <path
         d="m 16.417236,534.97662 1.708985,0 -0.170899,1.34278 0.03662,0.0366 q 1.013184,-1.64795 3.344727,-1.64795 3.222656,0 3.222656,3.32031 l -0.01221,0.80567 -1.68457,0 0.03662,-0.29297 q 0.03662,-0.46387 0.03662,-0.62256 0,-1.79444 -1.953125,-1.79444 -2.856445,0 -2.856445,3.52784 l 0,6.99463 -1.708985,0 0,-11.66993 z"
         style="font-style:normal;font-variant:normal;font-weight:normal;font-stretch:normal;font-size:25px;font-family:Eurostile;-inkscape-font-specification:Eurostile;fill:#000000"
         id="path3586" />
      <path
         d="m 32.39624,534.97662 0,1.41602 -4.492187,0 0,7.14111 q 0,1.86768 1.660156,1.86768 1.647949,0 1.647949,-1.67237 l 0.01221,-0.57373 0.02441,-0.64697 1.586914,0 0.01221,0.8667 q 0,3.44238 -3.271484,3.44238 -3.381348,0 -3.381348,-2.86865 l 0,-0.41504 0,-7.14111 -1.611328,0 0,-1.41602 1.611328,0 0,-2.80761 1.708985,0 0,2.80761 4.492187,0 z"
         style="font-style:normal;font-variant:normal;font-weight:normal;font-stretch:normal;font-size:25px;font-family:Eurostile;-inkscape-font-specification:Eurostile;fill:#000000"
         id="path3588" />
      <path
         d="m 42.479248,543.11871 1.745606,0 0.01221,0.42725 q 0,1.81885 -1.11084,2.55127 -1.098633,0.72021 -3.869629,0.72021 -3.222656,0 -4.23584,-1.17187 -1.000977,-1.18408 -1.000977,-4.95606 0,-3.49121 1.013184,-4.6875 1.013184,-1.19628 3.967285,-1.19628 3.222656,0 4.223633,1.03759 1.000977,1.0376 1.000977,4.37012 l 0,0.91553 -8.398438,0 q 0,2.75879 0.585938,3.51562 0.598144,0.75684 2.770996,0.75684 2.062988,0 2.673339,-0.35401 0.622559,-0.36621 0.622559,-1.5625 l 0,-0.36621 z m 0,-3.32031 -0.01221,-0.54932 q 0,-1.89209 -0.622559,-2.45361 -0.622558,-0.57373 -2.685546,-0.57373 -2.075196,0 -2.697754,0.67139 -0.610352,0.65918 -0.610352,2.90527 l 6.628418,0 z"
         style="font-style:normal;font-variant:normal;font-weight:normal;font-stretch:normal;font-size:25px;font-family:Eurostile;-inkscape-font-specification:Eurostile;fill:#000000"
         id="path3590" />
      <path
         d="m 56.663818,529.98395 0,16.6626 -1.708984,0 0.08545,-1.51368 -0.04883,-0.0122 q -0.805664,1.69677 -3.747559,1.69677 -2.685546,0 -3.674316,-1.30615 -0.976562,-1.30615 -0.976562,-4.8706 0,-3.2837 0.988769,-4.55323 0.98877,-1.28173 3.540039,-1.28173 3.186035,0 3.796387,1.64794 l 0.03662,-0.0244 0,-6.44531 1.708984,0 z m -5.13916,6.23779 q -1.89209,0 -2.514648,0.87891 -0.622559,0.8667 -0.622559,3.52783 0,2.92969 0.610352,3.85742 0.622558,0.91553 2.563476,0.91553 2.111817,0 2.746582,-0.91553 0.634766,-0.92773 0.634766,-4.01611 0,-2.50244 -0.708008,-3.36914 -0.695801,-0.87891 -2.709961,-0.87891 z"
         style="font-style:normal;font-variant:normal;font-weight:normal;font-stretch:normal;font-size:25px;font-family:Eurostile;-inkscape-font-specification:Eurostile;fill:#000000"
         id="path3592" />
      <path
         d="m 65.904541,546.64655 0,-16.6626 1.708984,0 0,6.48193 0.03662,0.0366 q 0.585938,-1.69677 3.833008,-1.69677 2.563477,0 3.540039,1.33056 0.976563,1.33057 0.976563,4.82178 0,3.3081 -1.037598,4.58984 -1.02539,1.26953 -3.723144,1.26953 -2.746582,0 -3.66211,-1.62353 l -0.04883,0.0122 0.08545,1.44043 -1.708984,0 z m 5.13916,-10.42481 q -2.01416,0 -2.697754,0.8667 -0.683593,0.85449 -0.683593,3.41797 0,3.16162 0.610351,4.02832 0.622559,0.8667 2.844238,0.8667 1.879883,0 2.478028,-0.87891 0.610351,-0.89111 0.610351,-3.63769 0,-2.89307 -0.598144,-3.77198 -0.598145,-0.89111 -2.563477,-0.89111 z"
         style="font-style:normal;font-variant:normal;font-weight:normal;font-stretch:normal;font-size:25px;font-family:Eurostile;-inkscape-font-specification:Eurostile;fill:#000000"
         id="path3594" />
      <path
         d="m 86.986084,534.97662 -3.308105,12.34131 q -0.695801,2.61231 -1.550293,3.58887 -0.842286,0.97656 -2.416993,0.97656 -0.317382,0 -0.817871,-0.0855 l 0,-1.41601 q 0.354004,0.0732 0.598145,0.0855 1.379394,0.0732 2.050781,-2.23389 l 0.32959,-1.14746 q 0.01221,-0.061 0.109863,-0.43945 l -0.646972,0 -4.223633,-11.66993 1.818847,0 1.794434,5.2002 0.90332,2.58789 0.439453,1.30615 0.451661,1.29395 0.04883,0 0.317382,-1.29395 0.305176,-1.30615 0.65918,-2.58789 1.318359,-5.2002 1.818848,0 z"
         style="font-style:normal;font-variant:normal;font-weight:normal;font-stretch:normal;font-size:25px;font-family:Eurostile;-inkscape-font-specification:Eurostile;fill:#000000"
         id="path3596" />
    </g>
  </g>
</svg>
