<?xml version="1.0" encoding="UTF-8" standalone="no"?>
<!-- Created with Inkscape (http://www.inkscape.org/) -->

<svg
   xmlns:dc="http://purl.org/dc/elements/1.1/"
   xmlns:cc="http://creativecommons.org/ns#"
   xmlns:rdf="http://www.w3.org/1999/02/22-rdf-syntax-ns#"
   xmlns:svg="http://www.w3.org/2000/svg"
   xmlns="http://www.w3.org/2000/svg"
   xmlns:xlink="http://www.w3.org/1999/xlink"
   xmlns:sodipodi="http://sodipodi.sourceforge.net/DTD/sodipodi-0.dtd"
   xmlns:inkscape="http://www.inkscape.org/namespaces/inkscape"
   width="1000"
   height="1052.3622"
   id="svg7985"
   version="1.1"
   inkscape:version="0.91 r13725"
   sodipodi:docname="SRshirtfront.svg"
   inkscape:export-filename="/home/rbarlow/srobo/git/shirts/SRshirtfront.png"
   inkscape:export-xdpi="90"
   inkscape:export-ydpi="90">
  <defs
     id="defs7987">
    <inkscape:perspective
       sodipodi:type="inkscape:persp3d"
       inkscape:vp_x="0 : 526.18109 : 1"
       inkscape:vp_y="0 : 1000 : 0"
       inkscape:vp_z="744.09448 : 526.18109 : 1"
       inkscape:persp3d-origin="372.04724 : 350.78739 : 1"
       id="perspective7993" />
    <inkscape:perspective
       id="perspective10"
       inkscape:persp3d-origin="0.5 : 0.33333333 : 1"
       inkscape:vp_z="1 : 0.5 : 1"
       inkscape:vp_y="0 : 1000 : 0"
       inkscape:vp_x="0 : 0.5 : 1"
       sodipodi:type="inkscape:persp3d" />
    <clipPath
       id="clipPath20"
       clipPathUnits="userSpaceOnUse">
      <path
         id="path22"
         d="M 0,1125.9 0,0 l 2834.68,0 0,1125.9 -2834.68,0 z" />
    </clipPath>
    <inkscape:perspective
       id="perspective10-5"
       inkscape:persp3d-origin="0.5 : 0.33333333 : 1"
       inkscape:vp_z="1 : 0.5 : 1"
       inkscape:vp_y="0 : 1000 : 0"
       inkscape:vp_x="0 : 0.5 : 1"
       sodipodi:type="inkscape:persp3d" />
    <inkscape:perspective
       id="perspective9044"
       inkscape:persp3d-origin="265.21185 : 125.42996 : 1"
       inkscape:vp_z="530.42371 : 188.14494 : 1"
       inkscape:vp_y="0 : 1000 : 0"
       inkscape:vp_x="0 : 188.14494 : 1"
       sodipodi:type="inkscape:persp3d" />
    <inkscape:perspective
       sodipodi:type="inkscape:persp3d"
       inkscape:vp_x="0 : 0.5 : 1"
       inkscape:vp_y="0 : 1000 : 0"
       inkscape:vp_z="1 : 0.5 : 1"
       inkscape:persp3d-origin="0.5 : 0.33333333 : 1"
       id="perspective3196" />
    <inkscape:perspective
       id="perspective3249"
       inkscape:persp3d-origin="372.04724 : 350.78739 : 1"
       inkscape:vp_z="744.09448 : 526.18109 : 1"
       inkscape:vp_y="0 : 1000 : 0"
       inkscape:vp_x="0 : 526.18109 : 1"
       sodipodi:type="inkscape:persp3d" />
    <inkscape:perspective
       sodipodi:type="inkscape:persp3d"
       inkscape:vp_x="0 : 0.5 : 1"
       inkscape:vp_y="0 : 1000 : 0"
       inkscape:vp_z="1 : 0.5 : 1"
       inkscape:persp3d-origin="0.5 : 0.33333333 : 1"
       id="perspective2846" />
    <radialGradient
       r="198.27467"
       fy="485.01904"
       fx="279.54501"
       cy="485.01904"
       cx="279.54501"
       gradientTransform="matrix(0.4603364,1.6362682,-1.6486307,0.4638141,935.51442,-211.36002)"
       gradientUnits="userSpaceOnUse"
       id="radialGradient3305"
       xlink:href="#linearGradient3307"
       inkscape:collect="always" />
    <radialGradient
       r="198.27467"
       fy="467.98898"
       fx="285.65286"
       cy="467.98898"
       cx="285.65286"
       gradientTransform="matrix(0.7792208,0.7915819,-0.7599434,0.7480763,418.71133,-108.22014)"
       gradientUnits="userSpaceOnUse"
       id="radialGradient3297"
       xlink:href="#linearGradient3247"
       inkscape:collect="always" />
    <radialGradient
       r="198.27467"
       fy="467.98898"
       fx="285.65286"
       cy="467.98898"
       cx="285.65286"
       gradientTransform="matrix(0.7792208,0.7915819,-0.7599434,0.7480763,418.71133,-108.22014)"
       gradientUnits="userSpaceOnUse"
       id="radialGradient3288"
       xlink:href="#linearGradient3247"
       inkscape:collect="always" />
    <radialGradient
       gradientTransform="matrix(0.7792208,0.7915819,-0.7599434,0.7480763,418.71133,-108.22014)"
       gradientUnits="userSpaceOnUse"
       r="198.27467"
       fy="467.98898"
       fx="285.65286"
       cy="467.98898"
       cx="285.65286"
       id="radialGradient3253"
       xlink:href="#linearGradient3247"
       inkscape:collect="always" />
    <linearGradient
       id="linearGradient3239">
      <stop
         id="stop3241"
         offset="0"
         style="stop-color:#ffffff;stop-opacity:1;" />
      <stop
         id="stop3243"
         offset="1"
         style="stop-color:#000000;stop-opacity:0;" />
    </linearGradient>
    <linearGradient
       id="linearGradient3247">
      <stop
         id="stop3249"
         offset="0"
         style="stop-color:#ffffff;stop-opacity:1;" />
      <stop
         id="stop3251"
         offset="1"
         style="stop-color:#253571;stop-opacity:1;" />
    </linearGradient>
    <linearGradient
       id="linearGradient3307">
      <stop
         style="stop-color:#ffffff;stop-opacity:1;"
         offset="0"
         id="stop3309" />
      <stop
         id="stop3313"
         offset="0.36160421"
         style="stop-color:#ffffff;stop-opacity:0.51485151;" />
      <stop
         style="stop-color:#253571;stop-opacity:0.35643566;"
         offset="0.7708323"
         id="stop3328" />
      <stop
         style="stop-color:#253571;stop-opacity:1;"
         offset="1"
         id="stop3324" />
    </linearGradient>
    <inkscape:perspective
       id="perspective30"
       inkscape:persp3d-origin="196.47908 : 130.98633 : 1"
       inkscape:vp_z="392.95816 : 196.47949 : 1"
       inkscape:vp_y="0 : 1000 : 0"
       inkscape:vp_x="0 : 196.47949 : 1"
       sodipodi:type="inkscape:persp3d" />
    <inkscape:perspective
       sodipodi:type="inkscape:persp3d"
       inkscape:vp_x="0 : 196.47949 : 1"
       inkscape:vp_y="0 : 1000 : 0"
       inkscape:vp_z="392.95816 : 196.47949 : 1"
       inkscape:persp3d-origin="196.47908 : 130.98633 : 1"
       id="perspective30-4" />
    <linearGradient
       id="linearGradient3307-2">
      <stop
         id="stop3309-2"
         offset="0"
         style="stop-color:#ffffff;stop-opacity:1;" />
      <stop
         style="stop-color:#ffffff;stop-opacity:0.51485151;"
         offset="0.36160421"
         id="stop3313-4" />
      <stop
         id="stop3328-7"
         offset="0.7708323"
         style="stop-color:#253571;stop-opacity:0.35643566;" />
      <stop
         id="stop3324-0"
         offset="1"
         style="stop-color:#253571;stop-opacity:1;" />
    </linearGradient>
    <linearGradient
       id="linearGradient3247-2">
      <stop
         style="stop-color:#ffffff;stop-opacity:1;"
         offset="0"
         id="stop3249-3" />
      <stop
         style="stop-color:#253571;stop-opacity:1;"
         offset="1"
         id="stop3251-6" />
    </linearGradient>
    <linearGradient
       id="linearGradient3239-6">
      <stop
         style="stop-color:#ffffff;stop-opacity:1;"
         offset="0"
         id="stop3241-8" />
      <stop
         style="stop-color:#000000;stop-opacity:0;"
         offset="1"
         id="stop3243-3" />
    </linearGradient>
    <radialGradient
       inkscape:collect="always"
       xlink:href="#linearGradient3247-2"
       id="radialGradient3253-4"
       cx="285.65286"
       cy="467.98898"
       fx="285.65286"
       fy="467.98898"
       r="198.27467"
       gradientUnits="userSpaceOnUse"
       gradientTransform="matrix(0.7792208,0.7915819,-0.7599434,0.7480763,418.71133,-108.22014)" />
    <radialGradient
       inkscape:collect="always"
       xlink:href="#linearGradient3247-2"
       id="radialGradient3288-9"
       gradientUnits="userSpaceOnUse"
       gradientTransform="matrix(0.7792208,0.7915819,-0.7599434,0.7480763,418.71133,-108.22014)"
       cx="285.65286"
       cy="467.98898"
       fx="285.65286"
       fy="467.98898"
       r="198.27467" />
    <radialGradient
       inkscape:collect="always"
       xlink:href="#linearGradient3247-2"
       id="radialGradient3297-4"
       gradientUnits="userSpaceOnUse"
       gradientTransform="matrix(0.7792208,0.7915819,-0.7599434,0.7480763,418.71133,-108.22014)"
       cx="285.65286"
       cy="467.98898"
       fx="285.65286"
       fy="467.98898"
       r="198.27467" />
    <radialGradient
       inkscape:collect="always"
       xlink:href="#linearGradient3307-2"
       id="radialGradient3305-5"
       gradientUnits="userSpaceOnUse"
       gradientTransform="matrix(0.4603364,1.6362682,-1.6486307,0.4638141,935.51442,-211.36002)"
       cx="279.54501"
       cy="485.01904"
       fx="279.54501"
       fy="485.01904"
       r="198.27467" />
    <inkscape:perspective
       id="perspective2846-8"
       inkscape:persp3d-origin="0.5 : 0.33333333 : 1"
       inkscape:vp_z="1 : 0.5 : 1"
       inkscape:vp_y="0 : 1000 : 0"
       inkscape:vp_x="0 : 0.5 : 1"
       sodipodi:type="inkscape:persp3d" />
    <inkscape:perspective
       sodipodi:type="inkscape:persp3d"
       inkscape:vp_x="0 : 526.18109 : 1"
       inkscape:vp_y="0 : 1000 : 0"
       inkscape:vp_z="744.09448 : 526.18109 : 1"
       inkscape:persp3d-origin="372.04724 : 350.78739 : 1"
       id="perspective3249-6" />
    <inkscape:perspective
       id="perspective3196-0"
       inkscape:persp3d-origin="0.5 : 0.33333333 : 1"
       inkscape:vp_z="1 : 0.5 : 1"
       inkscape:vp_y="0 : 1000 : 0"
       inkscape:vp_x="0 : 0.5 : 1"
       sodipodi:type="inkscape:persp3d" />
    <inkscape:perspective
       sodipodi:type="inkscape:persp3d"
       inkscape:vp_x="0 : 188.14494 : 1"
       inkscape:vp_y="0 : 1000 : 0"
       inkscape:vp_z="530.42371 : 188.14494 : 1"
       inkscape:persp3d-origin="265.21185 : 125.42996 : 1"
       id="perspective9044-0" />
    <inkscape:perspective
       sodipodi:type="inkscape:persp3d"
       inkscape:vp_x="0 : 0.5 : 1"
       inkscape:vp_y="0 : 1000 : 0"
       inkscape:vp_z="1 : 0.5 : 1"
       inkscape:persp3d-origin="0.5 : 0.33333333 : 1"
       id="perspective10-5-4" />
    <clipPath
       clipPathUnits="userSpaceOnUse"
       id="clipPath20-5">
      <path
         d="M 0,1125.9 0,0 l 2834.68,0 0,1125.9 -2834.68,0 z"
         id="path22-2" />
    </clipPath>
    <inkscape:perspective
       sodipodi:type="inkscape:persp3d"
       inkscape:vp_x="0 : 0.5 : 1"
       inkscape:vp_y="0 : 1000 : 0"
       inkscape:vp_z="1 : 0.5 : 1"
       inkscape:persp3d-origin="0.5 : 0.33333333 : 1"
       id="perspective10-6" />
    <inkscape:perspective
       id="perspective7993-7"
       inkscape:persp3d-origin="372.04724 : 350.78739 : 1"
       inkscape:vp_z="744.09448 : 526.18109 : 1"
       inkscape:vp_y="0 : 1000 : 0"
       inkscape:vp_x="0 : 526.18109 : 1"
       sodipodi:type="inkscape:persp3d" />
  </defs>
  <sodipodi:namedview
     id="base"
     pagecolor="#ffffff"
     bordercolor="#666666"
     borderopacity="1.0"
     inkscape:pageopacity="1"
     inkscape:pageshadow="2"
     inkscape:zoom="0.7"
     inkscape:cx="530.99446"
     inkscape:cy="515.25959"
     inkscape:document-units="px"
     inkscape:current-layer="layer1"
     showgrid="false"
     inkscape:window-width="1600"
     inkscape:window-height="836"
     inkscape:window-x="0"
     inkscape:window-y="27"
     inkscape:window-maximized="1"
     inkscape:object-nodes="true">
    <inkscape:grid
       type="xygrid"
       id="grid3644" />
  </sodipodi:namedview>
  <metadata
     id="metadata7990">
    <rdf:RDF>
      <cc:Work
         rdf:about="">
        <dc:format>image/svg+xml</dc:format>
        <dc:type
           rdf:resource="http://purl.org/dc/dcmitype/StillImage" />
        <dc:title></dc:title>
      </cc:Work>
    </rdf:RDF>
  </metadata>
  <g
     inkscape:label="Layer 1"
     inkscape:groupmode="layer"
     id="layer1">
    <g
       transform="translate(0,-29.999997)"
       id="g3456">
      <path
         style="fill:#0d1f61;fill-opacity:1;stroke:none;stroke-width:1px;stroke-linecap:butt;stroke-linejoin:miter;stroke-opacity:1"
         d="m 740,222.36218 220,130 -100,170 -120,-70 0,510 -240,0 0,-740 z"
         id="path3454"
         inkscape:connector-curvature="0"
         sodipodi:nodetypes="cccccccc" />
      <path
         sodipodi:nodetypes="cccccccc"
         inkscape:connector-curvature="0"
         id="path7995-1"
         d="m 260,222.36218 -220,130 100,170 120,-70 0,510 240,0 0,-740 z"
         style="fill:#0d1f61;fill-opacity:1;stroke:none;stroke-width:1px;stroke-linecap:butt;stroke-linejoin:miter;stroke-opacity:1" />
    </g>
    <g
       id="g9826"
       transform="matrix(0.16817529,0,0,0.16817529,475.04,389.09551)">
      <g
         transform="translate(0.75454682,-329.25543)"
         inkscape:label="2"
         id="layer2" />
    </g>
    <g
       id="g3996"
       transform="translate(-307.74119,-96.568542)">
      <g
         id="g3992">
        <path
           inkscape:connector-curvature="0"
           style="fill:#ffffff;fill-opacity:1;fill-rule:nonzero;stroke:none"
           d="m 977.83583,417.35575 a 45.40078,45.40078 0 0 1 -45.40078,45.40078 45.40078,45.40078 0 0 1 -45.40078,-45.40078 45.40078,45.40078 0 0 1 45.40078,-45.40078 45.40078,45.40078 0 0 1 45.40078,45.40078 z"
           id="path2266" />
        <path
           inkscape:connector-curvature="0"
           id="path3255"
           d="m 932.49541,393.34414 c -0.23188,-4.6e-4 -0.30741,0.0695 -0.42108,0.0754 -0.22734,0.0117 -0.34006,0.0288 -0.44004,0.0429 -0.19995,0.0282 -0.31951,0.0526 -0.44907,0.079 -0.2591,0.0526 -0.52243,0.1139 -0.84532,0.19271 -0.64579,0.15764 -1.50282,0.38176 -2.5581,0.67337 -2.11056,0.58324 -4.99728,1.43188 -8.29485,2.49311 -6.59514,2.12247 -14.79668,5.06974 -21.68829,8.51555 a 4.3562374,4.3562374 0 0 0 -0.25726,7.65262 c 6.32331,3.7115 11.5263,6.71905 16.78287,9.22729 -9.84339,4.38104 -17.19267,10.46661 -17.19267,10.46661 a 4.3562374,4.3562374 0 1 0 5.46326,6.78608 c 0,0 13.56872,-10.49652 25.31873,-12.52239 a 4.3562374,4.3562374 0 0 0 0.57679,-8.44469 c -6.82087,-2.16271 -12.31273,-4.87144 -19.15863,-8.74753 4.36085,-1.76234 8.88545,-3.37347 12.82387,-4.64095 3.17439,-1.02159 5.96199,-1.83989 7.94688,-2.38839 0.90492,-0.25007 1.58601,-0.42614 2.1,-0.55378 0.57675,0.15487 1.37233,0.36983 2.3699,0.64765 2.03204,0.56593 4.84933,1.37757 8.05204,2.38434 3.95106,1.24201 8.47369,2.81288 12.82297,4.53985 -6.69135,3.72894 -12.07978,6.30235 -19.26199,8.92174 a 4.3562374,4.3562374 0 0 0 0.95184,8.414 c 4.90961,0.6137 11.39612,3.65205 16.39745,6.63895 5.00132,2.9869 8.52186,5.76339 8.52186,5.76339 a 4.3562374,4.3562374 0 1 0 5.39646,-6.83889 c 0,0 -3.94888,-3.11747 -9.45159,-6.40381 -2.31653,-1.38348 -4.9182,-2.81419 -7.6815,-4.08718 5.30674,-2.51415 10.4986,-5.36655 16.99002,-9.17673 a 4.3562374,4.3562374 0 0 0 -0.25725,-7.65217 c -6.91921,-3.45961 -15.17788,-6.34356 -21.81602,-8.43025 -3.31906,-1.04335 -6.22612,-1.88051 -8.32689,-2.46557 -1.05039,-0.29254 -1.89993,-0.52195 -2.49266,-0.68105 -0.29636,-0.0795 -0.52963,-0.14199 -0.68285,-0.18324 -0.0766,-0.0206 -0.13477,-0.0364 -0.15796,-0.0429 -0.0232,-0.006 -0.28402,-0.11714 0.27711,0.093 -0.73806,-0.27636 -1.12615,-0.34747 -1.35803,-0.34797 z m -1.25106,8.64869 c 0.0693,0.0192 0.13944,0.0383 0.22521,0.0614 0.089,0.024 0.23741,0.0635 0.35744,0.0957 -0.1441,-0.0247 -0.34724,-0.0829 -0.58265,-0.15706 z"
           style="color:#000000;font-style:normal;font-variant:normal;font-weight:normal;font-stretch:normal;font-size:medium;line-height:normal;font-family:sans-serif;text-indent:0;text-align:start;text-decoration:none;text-decoration-line:none;text-decoration-style:solid;text-decoration-color:#000000;letter-spacing:normal;word-spacing:normal;text-transform:none;direction:ltr;block-progression:tb;writing-mode:lr-tb;baseline-shift:baseline;text-anchor:start;white-space:normal;clip-rule:nonzero;display:inline;overflow:visible;visibility:visible;opacity:1;isolation:auto;mix-blend-mode:normal;color-interpolation:sRGB;color-interpolation-filters:linearRGB;solid-color:#000000;solid-opacity:1;fill:#0d1f61;fill-opacity:1;fill-rule:nonzero;stroke:none;stroke-width:37.70000076;stroke-linecap:round;stroke-linejoin:round;stroke-miterlimit:4;stroke-dasharray:none;stroke-dashoffset:0;stroke-opacity:1;color-rendering:auto;image-rendering:auto;shape-rendering:auto;text-rendering:auto;enable-background:accumulate" />
      </g>
      <g
         id="g3975">
        <path
           inkscape:connector-curvature="0"
           d="m 905.39462,475.52381 -1.30737,0 q 0,-1.40991 -0.46997,-1.78589 -0.46997,-0.38452 -2.21314,-0.38452 -2.06787,0 -2.66601,0.36743 -0.59815,0.35889 -0.59815,1.61499 0,1.40991 0.46997,1.71753 0.46997,0.30762 2.79419,0.4187 2.72583,0.11963 3.4607,0.69214 0.7434,0.57251 0.7434,2.56348 0,2.15332 -0.85449,2.78564 -0.84594,0.63233 -3.75122,0.63233 -2.52075,0 -3.35815,-0.63233 -0.82886,-0.64087 -0.82886,-2.57202 l -0.009,-0.52124 1.30737,0 0,0.29053 q 0,1.56372 0.47851,1.94824 0.47852,0.37598 2.4524,0.37598 2.2644,0 2.78564,-0.37598 0.52124,-0.38452 0.52124,-2.03369 0,-1.06812 -0.35889,-1.41846 -0.35034,-0.35888 -1.47827,-0.42724 l -1.36718,-0.0684 -1.29883,-0.0684 q -2.96509,-0.20508 -2.96509,-3.07617 0,-1.99097 0.86304,-2.65748 0.86303,-0.6665 3.4436,-0.6665 2.61475,0 3.40942,0.62378 0.79468,0.61523 0.79468,2.65747 z"
           style="font-style:normal;font-variant:normal;font-weight:normal;font-stretch:normal;font-size:17.5px;line-height:100%;font-family:Eurostile;-inkscape-font-specification:Eurostile;text-align:center;letter-spacing:0px;word-spacing:0px;text-anchor:middle;fill:#ffffff;fill-opacity:1;stroke:none;stroke-width:1px;stroke-linecap:butt;stroke-linejoin:miter;stroke-opacity:1"
           id="path3390" />
        <path
           inkscape:connector-curvature="0"
           d="m 911.27353,473.58411 0,10.4419 -1.31592,0 0,-10.4419 -3.80249,0 0,-1.22192 8.88672,0 0,1.22192 -3.76831,0 z"
           style="font-style:normal;font-variant:normal;font-weight:normal;font-stretch:normal;font-size:17.5px;line-height:100%;font-family:Eurostile;-inkscape-font-specification:Eurostile;text-align:center;letter-spacing:0px;word-spacing:0px;text-anchor:middle;fill:#ffffff;fill-opacity:1;stroke:none;stroke-width:1px;stroke-linecap:butt;stroke-linejoin:miter;stroke-opacity:1"
           id="path3392" />
        <path
           inkscape:connector-curvature="0"
           d="m 924.15927,472.36219 1.31592,0 0,8.16894 q 0,2.22168 -0.89722,2.92237 -0.88867,0.69214 -3.74267,0.69214 -2.67457,0 -3.64014,-0.66651 -0.95703,-0.67505 -0.95703,-2.55493 l 0,-0.39307 0,-8.16894 1.31592,0 0,8.16894 q 0,1.65772 0.53833,2.08497 0.53833,0.4187 2.64892,0.4187 2.29004,0 2.85401,-0.41016 0.56396,-0.4187 0.56396,-2.09351 l 0,-8.16894 z"
           style="font-style:normal;font-variant:normal;font-weight:normal;font-stretch:normal;font-size:17.5px;line-height:100%;font-family:Eurostile;-inkscape-font-specification:Eurostile;text-align:center;letter-spacing:0px;word-spacing:0px;text-anchor:middle;fill:#ffffff;fill-opacity:1;stroke:none;stroke-width:1px;stroke-linecap:butt;stroke-linejoin:miter;stroke-opacity:1"
           id="path3394" />
        <path
           inkscape:connector-curvature="0"
           d="m 927.67978,484.02601 0,-11.66382 5.40039,0 q 2.50366,0 3.39233,1.10229 0.88867,1.1023 0.88867,4.2212 0,3.79394 -0.79467,5.06713 -0.78614,1.2732 -3.15308,1.2732 l -5.73364,0 z m 1.31592,-1.11084 3.80249,0 q 2.0935,0 2.70019,-0.8374 0.60669,-0.83741 0.60669,-3.73414 0,-3.17871 -0.52978,-4.02465 -0.52124,-0.84595 -2.51221,-0.84595 l -4.06738,0 0,9.44214 z"
           style="font-style:normal;font-variant:normal;font-weight:normal;font-stretch:normal;font-size:17.5px;line-height:100%;font-family:Eurostile;-inkscape-font-specification:Eurostile;text-align:center;letter-spacing:0px;word-spacing:0px;text-anchor:middle;fill:#ffffff;fill-opacity:1;stroke:none;stroke-width:1px;stroke-linecap:butt;stroke-linejoin:miter;stroke-opacity:1"
           id="path3396" />
        <path
           inkscape:connector-curvature="0"
           d="m 939.97592,473.47303 0,3.97339 5.92163,0 0,1.11084 -5.92163,0 0,4.35791 6.17798,0 0,1.11084 -7.4939,0 0,-11.66382 7.4939,0 0,1.11084 -6.17798,0 z"
           style="font-style:normal;font-variant:normal;font-weight:normal;font-stretch:normal;font-size:17.5px;line-height:100%;font-family:Eurostile;-inkscape-font-specification:Eurostile;text-align:center;letter-spacing:0px;word-spacing:0px;text-anchor:middle;fill:#ffffff;fill-opacity:1;stroke:none;stroke-width:1px;stroke-linecap:butt;stroke-linejoin:miter;stroke-opacity:1"
           id="path3398" />
        <path
           inkscape:connector-curvature="0"
           d="m 957.80917,472.36219 0,11.66382 -2.16186,0 -4.8877,-7.93823 -0.79468,-1.30738 -0.39306,-0.64941 -0.39307,-0.64942 -0.0342,0 0.009,0.4358 0.009,0.44433 0,0.87158 0,8.79273 -1.31592,0 0,-11.66382 2.15332,0 4.26392,6.95557 1.11084,1.82861 0.55542,0.90576 0.54687,0.91431 0.0342,0 -0.009,-0.43579 -0.009,-0.44434 0,-0.87158 0,-8.85254 1.31592,0 z"
           style="font-style:normal;font-variant:normal;font-weight:normal;font-stretch:normal;font-size:17.5px;line-height:100%;font-family:Eurostile;-inkscape-font-specification:Eurostile;text-align:center;letter-spacing:0px;word-spacing:0px;text-anchor:middle;fill:#ffffff;fill-opacity:1;stroke:none;stroke-width:1px;stroke-linecap:butt;stroke-linejoin:miter;stroke-opacity:1"
           id="path3400" />
        <path
           inkscape:connector-curvature="0"
           d="m 964.11532,473.58411 0,10.4419 -1.31591,0 0,-10.4419 -3.80249,0 0,-1.22192 8.88672,0 0,1.22192 -3.76832,0 z"
           style="font-style:normal;font-variant:normal;font-weight:normal;font-stretch:normal;font-size:17.5px;line-height:100%;font-family:Eurostile;-inkscape-font-specification:Eurostile;text-align:center;letter-spacing:0px;word-spacing:0px;text-anchor:middle;fill:#ffffff;fill-opacity:1;stroke:none;stroke-width:1px;stroke-linecap:butt;stroke-linejoin:miter;stroke-opacity:1"
           id="path3402" />
        <path
           inkscape:connector-curvature="0"
           d="m 895.22616,501.52601 0,-11.66382 5.5542,0 q 1.87989,0 2.64893,0.74341 0.76904,0.74341 0.76904,2.58056 0,1.61499 -0.4187,2.25586 -0.4187,0.63233 -1.5979,0.82032 l 0,0.0256 q 1.85425,0.13672 1.85425,2.25586 l 0,2.98218 -1.31592,0 0,-2.68311 q 0,-2.04223 -1.7688,-2.04223 l -0.43579,0 -3.97339,0 0,4.72534 -1.31592,0 z m 1.31592,-5.83618 3.80249,0 q 1.50391,0 2.05078,-0.45288 0.54688,-0.46143 0.54688,-1.72608 0,-1.58081 -0.41016,-2.05933 -0.40161,-0.47851 -1.73462,-0.47851 l -4.25537,0 0,4.7168 z"
           style="font-style:normal;font-variant:normal;font-weight:normal;font-stretch:normal;font-size:17.5px;line-height:100%;font-family:Eurostile;-inkscape-font-specification:Eurostile;text-align:center;letter-spacing:0px;word-spacing:0px;text-anchor:middle;fill:#ffffff;fill-opacity:1;stroke:none;stroke-width:1px;stroke-linecap:butt;stroke-linejoin:miter;stroke-opacity:1"
           id="path3404" />
        <path
           inkscape:connector-curvature="0"
           d="m 910.3934,489.74256 q 3.30689,0 4.13574,0.96558 0.82886,0.96557 0.82886,4.82788 0,4.16137 -0.79468,5.1355 -0.79467,0.97412 -4.16992,0.97412 -3.35815,0 -4.16992,-0.96558 -0.80322,-0.96558 -0.80322,-4.99023 l 0,-0.82032 0.0171,-1.10229 q 0,-2.32422 1.04248,-3.17017 1.05102,-0.85449 3.91357,-0.85449 z m -0.009,1.11084 q -2.76856,0 -3.23853,0.61523 -0.46997,0.61524 -0.46997,4.2212 0,3.6145 0.46997,4.22973 0.46997,0.61524 3.23853,0.61524 2.7771,0 3.24707,-0.61524 0.46997,-0.61523 0.46997,-4.22973 l 0,-0.7605 -0.009,-1.1023 q 0,-1.93115 -0.64941,-2.45239 -0.64942,-0.52124 -3.05908,-0.52124 z"
           style="font-style:normal;font-variant:normal;font-weight:normal;font-stretch:normal;font-size:17.5px;line-height:100%;font-family:Eurostile;-inkscape-font-specification:Eurostile;text-align:center;letter-spacing:0px;word-spacing:0px;text-anchor:middle;fill:#ffffff;fill-opacity:1;stroke:none;stroke-width:1px;stroke-linecap:butt;stroke-linejoin:miter;stroke-opacity:1"
           id="path3406" />
        <path
           inkscape:connector-curvature="0"
           d="m 916.86191,501.52601 0,-11.66382 5.16113,0 q 2.14478,0 2.80273,0.5896 0.66651,0.5896 0.66651,2.49512 0,1.93969 -1.49536,2.45239 l 0,0.0256 q 1.85424,0.44434 1.85424,2.74292 0,1.85425 -0.73486,2.6062 -0.72632,0.75196 -2.53784,0.75196 l -5.71655,0 z m 1.31591,-6.53687 3.4607,0 q 1.64917,0 2.11914,-0.39306 0.47851,-0.39307 0.47851,-1.75171 0,-1.1792 -0.4187,-1.521 -0.41015,-0.35034 -1.82007,-0.35034 l -3.81958,0 0,4.01611 z m 0,5.42603 2.79419,0 1.18775,-0.009 q 1.5039,0 1.96533,-0.38452 0.46997,-0.39306 0.46997,-1.64917 0,-1.56372 -0.46997,-1.91406 -0.46997,-0.35889 -2.55493,-0.35889 l -3.39234,0 0,4.31519 z"
           style="font-style:normal;font-variant:normal;font-weight:normal;font-stretch:normal;font-size:17.5px;line-height:100%;font-family:Eurostile;-inkscape-font-specification:Eurostile;text-align:center;letter-spacing:0px;word-spacing:0px;text-anchor:middle;fill:#ffffff;fill-opacity:1;stroke:none;stroke-width:1px;stroke-linecap:butt;stroke-linejoin:miter;stroke-opacity:1"
           id="path3408" />
        <path
           inkscape:connector-curvature="0"
           d="m 931.9266,489.74256 q 3.30689,0 4.13575,0.96558 0.82885,0.96557 0.82885,4.82788 0,4.16137 -0.79467,5.1355 -0.79468,0.97412 -4.16993,0.97412 -3.35815,0 -4.16992,-0.96558 -0.80322,-0.96558 -0.80322,-4.99023 l 0,-0.82032 0.0171,-1.10229 q 0,-2.32422 1.04248,-3.17017 1.05103,-0.85449 3.91357,-0.85449 z m -0.009,1.11084 q -2.76856,0 -3.23853,0.61523 -0.46997,0.61524 -0.46997,4.2212 0,3.6145 0.46997,4.22973 0.46997,0.61524 3.23853,0.61524 2.7771,0 3.24707,-0.61524 0.46997,-0.61523 0.46997,-4.22973 l 0,-0.7605 -0.009,-1.1023 q 0,-1.93115 -0.64942,-2.45239 -0.64941,-0.52124 -3.05908,-0.52124 z"
           style="font-style:normal;font-variant:normal;font-weight:normal;font-stretch:normal;font-size:17.5px;line-height:100%;font-family:Eurostile;-inkscape-font-specification:Eurostile;text-align:center;letter-spacing:0px;word-spacing:0px;text-anchor:middle;fill:#ffffff;fill-opacity:1;stroke:none;stroke-width:1px;stroke-linecap:butt;stroke-linejoin:miter;stroke-opacity:1"
           id="path3410" />
        <path
           inkscape:connector-curvature="0"
           d="m 942.46249,491.08411 0,10.4419 -1.31592,0 0,-10.4419 -3.80249,0 0,-1.22192 8.88672,0 0,1.22192 -3.76831,0 z"
           style="font-style:normal;font-variant:normal;font-weight:normal;font-stretch:normal;font-size:17.5px;line-height:100%;font-family:Eurostile;-inkscape-font-specification:Eurostile;text-align:center;letter-spacing:0px;word-spacing:0px;text-anchor:middle;fill:#ffffff;fill-opacity:1;stroke:none;stroke-width:1px;stroke-linecap:butt;stroke-linejoin:miter;stroke-opacity:1"
           id="path3412" />
        <path
           inkscape:connector-curvature="0"
           d="m 948.73447,489.86219 0,11.66382 -1.31592,0 0,-11.66382 1.31592,0 z"
           style="font-style:normal;font-variant:normal;font-weight:normal;font-stretch:normal;font-size:17.5px;line-height:100%;font-family:Eurostile;-inkscape-font-specification:Eurostile;text-align:center;letter-spacing:0px;word-spacing:0px;text-anchor:middle;fill:#ffffff;fill-opacity:1;stroke:none;stroke-width:1px;stroke-linecap:butt;stroke-linejoin:miter;stroke-opacity:1"
           id="path3414" />
        <path
           inkscape:connector-curvature="0"
           d="m 958.62094,497.62952 1.30737,0 0,0.44434 q 0,2.38403 -0.81176,2.98218 -0.81177,0.5896 -4.08448,0.5896 -2.93091,0 -3.72558,-1.04248 -0.79468,-1.05103 -0.79468,-4.93042 0,-3.03345 0.17944,-3.81104 0.17945,-0.78613 1.02539,-1.40137 0.99121,-0.71777 4.28101,-0.71777 2.23022,0 2.99927,0.69214 0.77758,0.69214 0.77758,2.67456 l 0.009,0.31616 -1.30737,0 -0.009,-0.35888 q 0,-1.40992 -0.46142,-1.81153 -0.45289,-0.40161 -2.05933,-0.40161 -2.81982,0 -3.4436,0.46997 -0.62378,0.46997 -0.62378,2.6062 0,4.91333 0.4187,5.75928 0.4187,0.84595 2.86255,0.84595 2.32422,0 2.89673,-0.36743 0.58105,-0.36744 0.58105,-1.84571 l -0.0171,-0.69214 z"
           style="font-style:normal;font-variant:normal;font-weight:normal;font-stretch:normal;font-size:17.5px;line-height:100%;font-family:Eurostile;-inkscape-font-specification:Eurostile;text-align:center;letter-spacing:0px;word-spacing:0px;text-anchor:middle;fill:#ffffff;fill-opacity:1;stroke:none;stroke-width:1px;stroke-linecap:butt;stroke-linejoin:miter;stroke-opacity:1"
           id="path3416" />
        <path
           inkscape:connector-curvature="0"
           d="m 969.43027,493.02381 -1.30738,0 q 0,-1.40991 -0.46997,-1.78589 -0.46997,-0.38452 -2.21313,-0.38452 -2.06787,0 -2.66602,0.36743 -0.59814,0.35889 -0.59814,1.61499 0,1.40991 0.46997,1.71753 0.46997,0.30762 2.79419,0.4187 2.72583,0.11963 3.46069,0.69214 0.74341,0.57251 0.74341,2.56348 0,2.15332 -0.85449,2.78564 -0.84595,0.63233 -3.75122,0.63233 -2.52076,0 -3.35816,-0.63233 -0.82886,-0.64087 -0.82886,-2.57202 l -0.009,-0.52124 1.30737,0 0,0.29053 q 0,1.56372 0.47852,1.94824 0.47851,0.37598 2.45239,0.37598 2.26441,0 2.78565,-0.37598 0.52124,-0.38452 0.52124,-2.03369 0,-1.06812 -0.35889,-1.41846 -0.35034,-0.35888 -1.47827,-0.42724 l -1.36719,-0.0684 -1.29883,-0.0684 q -2.96509,-0.20508 -2.96509,-3.07617 0,-1.99097 0.86304,-2.65748 0.86304,-0.6665 3.4436,-0.6665 2.61475,0 3.40943,0.62378 0.79468,0.61523 0.79468,2.65747 z"
           style="font-style:normal;font-variant:normal;font-weight:normal;font-stretch:normal;font-size:17.5px;line-height:100%;font-family:Eurostile;-inkscape-font-specification:Eurostile;text-align:center;letter-spacing:0px;word-spacing:0px;text-anchor:middle;fill:#ffffff;fill-opacity:1;stroke:none;stroke-width:1px;stroke-linecap:butt;stroke-linejoin:miter;stroke-opacity:1"
           id="path3418" />
      </g>
    </g>
    <text
       xml:space="preserve"
       style="font-style:normal;font-weight:normal;font-size:50px;line-height:120.00000477%;font-family:Sans;letter-spacing:0px;word-spacing:0px;fill:#000000;fill-opacity:1;stroke:none;stroke-width:1px;stroke-linecap:butt;stroke-linejoin:miter;stroke-opacity:1"
       x="412.03613"
       y="131.10306"
       id="text4215"
       sodipodi:linespacing="120%"><tspan
         sodipodi:role="line"
         id="tspan4217"
         x="412.03613"
         y="131.10306">FRONT</tspan></text>
  </g>
</svg>
